<?xml version="1.0" standalone="no"?><!DOCTYPE svg PUBLIC "-//W3C//DTD SVG 1.1//EN" "http://www.w3.org/Graphics/SVG/1.1/DTD/svg11.dtd"><svg t="1622093296753" class="icon" viewBox="0 0 1024 1024" version="1.1" xmlns="http://www.w3.org/2000/svg" p-id="3384" width="32" height="32" xmlns:xlink="http://www.w3.org/1999/xlink"><defs><style type="text/css"></style></defs><path d="M794.946413 676.840727a174.519642 174.519642 0 0 0-109.882737 38.782143L386.810531 542.026612a166.209183 166.209183 0 0 0 0-67.407057l297.32976-174.519642a174.519642 174.519642 0 0 0 109.882738 38.782143A170.826104 170.826104 0 0 0 967.619286 168.979336a173.596257 173.596257 0 0 0-346.26913 0 166.209183 166.209183 0 0 0 0 34.165221L327.713933 377.664198a174.519642 174.519642 0 0 0-109.882737-38.782142 168.979336 168.979336 0 1 0 0 338.882055 174.519642 174.519642 0 0 0 109.882737-38.782142L625.043693 812.578226a166.209183 166.209183 0 0 0 0 34.165221 173.596257 173.596257 0 1 0 169.90272-169.90272z" p-id="3385"></path></svg>