<svg class="icon" viewBox="0 0 1024 1024" version="1.1" xmlns="http://www.w3.org/2000/svg" width="16" height="16"><path d="M571.733333 512l226.133334-226.133333c17.066667-17.066667 17.066667-42.666667 0-59.733334s-42.666667-17.066667-59.733334 0L512 452.266667 285.866667 226.133333c-17.066667-17.066667-42.666667-17.066667-59.733334 0s-17.066667 42.666667 0 59.733334l226.133334 226.133333-226.133334 226.133333c-17.066667 17.066667-17.066667 42.666667 0 59.733334 8.533333 8.533333 17.066667 12.8 29.866667 12.8s21.333333-4.266667 29.866667-12.8l226.133333-226.133334 226.133333 226.133334c8.533333 8.533333 21.333333 12.8 29.866667 12.8s21.333333-4.266667 29.866667-12.8c17.066667-17.066667 17.066667-42.666667 0-59.733334L571.733333 512z"  fill="#808080"></path></svg>
